<svg width="27" height="27" viewBox="0 0 27 27" fill="none" xmlns="http://www.w3.org/2000/svg">
<!-- Left arc -->
<path d="M0 24.3C4.4735 24.3 8.09997 20.6735 8.09997 16.2001C8.09997 11.7265 4.4735 8.10004 0 8.10004V13.77C1.34204 13.77 2.42997 14.8579 2.42997 16.2001C2.42997 17.542 1.34204 18.63 0 18.63V24.3Z" fill="#737373"/>
<!-- Right arc -->
<path d="M27 10.8C25.6159 10.3615 24.1419 10.125 22.6125 10.125C14.5975 10.125 8.1001 16.6225 8.1001 24.6374C8.1001 25.4419 8.16557 26.2311 8.29146 26.9999H17.3085C16.9866 26.2782 16.8076 25.4788 16.8076 24.6374C16.8076 21.4314 19.4066 18.8324 22.6125 18.8324C24.3648 18.8324 25.9356 19.6088 27 20.8363V10.8Z" fill="#737373"/>
<!-- Top peak -->
<path d="M1.42401 5.34058e-05C2.09555 6.07496 7.24591 10.8 13.4998 10.8C19.7537 10.8 24.904 6.07496 25.5756 5.34058e-05H16.8865C16.3501 1.3448 15.0359 2.29504 13.4998 2.29504C11.9637 2.29504 10.6495 1.3448 10.113 5.34058e-05H1.42401Z" fill="#1D1D1D"/>
</svg>
